<svg height="512pt" viewBox="-13 0 512 512.00047" width="512pt" xmlns="http://www.w3.org/2000/svg" xmlns:xlink="http://www.w3.org/1999/xlink"><linearGradient id="a"><stop offset="0" stop-color="#ff4974"/><stop offset=".3262" stop-color="#fe4672"/><stop offset=".5324" stop-color="#fb3e6c"/><stop offset=".7054" stop-color="#f52f60"/><stop offset=".8591" stop-color="#ee1a51"/><stop offset="1" stop-color="#e4003d"/></linearGradient><linearGradient id="b" gradientTransform="matrix(.990067 .166249 -.166249 .990067 648.0764 -27.549917)" gradientUnits="userSpaceOnUse" x1="-455.1031" x2="-447.1708" xlink:href="#a" y1="448.8609" y2="477.8309"/><linearGradient id="c"><stop offset="0" stop-color="#ffc738"/><stop offset=".4286" stop-color="#ffbb23"/><stop offset="1" stop-color="#ffa700"/></linearGradient><linearGradient id="d" gradientUnits="userSpaceOnUse" x1="122.2949239598" x2="122.2949239598" xlink:href="#c" y1="380.3943783526" y2="356.4091758896"/><linearGradient id="e"><stop offset="0" stop-color="#00a899"/><stop offset="1" stop-color="#008b7a"/></linearGradient><linearGradient id="f" gradientTransform="matrix(.990067 .166249 -.166249 .990067 648.0764 -27.549917)" gradientUnits="userSpaceOnUse" x1="-480.7355" x2="-481.7701" xlink:href="#e" y1="443.0428" y2="457.8727"/><linearGradient id="g" gradientUnits="userSpaceOnUse" x1="103.013196459" x2="103.013196459" xlink:href="#c" y1="346.07701145" y2="308.8076119064"/><linearGradient id="h" gradientTransform="matrix(.990067 .166249 -.166249 .990067 648.0764 -27.549917)" gradientUnits="userSpaceOnUse" x1="-509.3696" x2="-531.7868" xlink:href="#a" y1="394.4436" y2="432.3806"/><linearGradient id="i" gradientTransform="matrix(-1.003922 0 0 1.003922 807.6925 0)" gradientUnits="userSpaceOnUse" x1="761.9521" x2="727.8903" xlink:href="#c" y1="309.5331" y2="275.8867"/><linearGradient id="j"><stop offset="0" stop-color="#00c6f6"/><stop offset=".8567" stop-color="#0b9cfd"/><stop offset="1" stop-color="#0d94fe"/></linearGradient><linearGradient id="k" gradientTransform="matrix(.990067 .166249 -.166249 .990067 648.0764 -27.549917)" gradientUnits="userSpaceOnUse" x1="-504.9682" x2="-523.9367" xlink:href="#j" y1="347.4101" y2="380.8636"/><linearGradient id="l" gradientTransform="matrix(.990067 .166249 -.166249 .990067 648.0764 -27.549917)" gradientUnits="userSpaceOnUse" x1="-597.5984" x2="-403.4391" xlink:href="#c" y1="322.5164" y2="322.5164"/><linearGradient id="m" gradientTransform="matrix(-.990067 .166249 .166249 .990067 146.566376 -27.549917)" gradientUnits="userSpaceOnUse" x1="-151.8135" x2="-143.8812" xlink:href="#a" y1="397.9301" y2="426.9001"/><linearGradient id="n" gradientUnits="userSpaceOnUse" x1="363.6058480402" x2="363.6058480402" xlink:href="#c" y1="385.2640024058" y2="356.78383958"/><linearGradient id="o" gradientTransform="matrix(-.990067 .166249 .166249 .990067 146.566376 -27.549917)" gradientUnits="userSpaceOnUse" x1="-177.4459" x2="-178.4806" xlink:href="#e" y1="392.112" y2="406.9418"/><linearGradient id="p" gradientUnits="userSpaceOnUse" x1="399.2817221932" x2="390.139908069" xlink:href="#c" y1="358.705848249" y2="332.6870009906"/><linearGradient id="q" gradientTransform="matrix(-.990067 .166249 .166249 .990067 146.566376 -27.549917)" gradientUnits="userSpaceOnUse" x1="-206.08" x2="-228.4973" xlink:href="#a" y1="343.5128" y2="381.4497"/><linearGradient id="r" gradientUnits="userSpaceOnUse" x1="406.5507198264" x2="364.543912757" y1="331.532691475" y2="292.3263248246"><stop offset="0" stop-color="#e4003d" stop-opacity="0"/><stop offset=".2023" stop-color="#d01544" stop-opacity=".203922"/><stop offset=".4993" stop-color="#b92d4c" stop-opacity=".498039"/><stop offset=".7732" stop-color="#ab3c51" stop-opacity=".772549"/><stop offset="1" stop-color="#a64153"/></linearGradient><linearGradient id="s" gradientUnits="userSpaceOnUse" x1="443.1483951598" x2="408.9530047802" xlink:href="#c" y1="310.7470888182" y2="276.9687276374"/><linearGradient id="t" gradientTransform="matrix(-.990067 .166249 .166249 .990067 146.566376 -27.549917)" gradientUnits="userSpaceOnUse" x1="-201.6787" x2="-220.6471" xlink:href="#j" y1="296.4793" y2="329.9327"/><linearGradient id="u"><stop offset="0" stop-color="#0d94fe" stop-opacity="0"/><stop offset=".5142" stop-color="#0681cd" stop-opacity=".513725"/><stop offset="1" stop-color="#0070a2"/></linearGradient><linearGradient id="v" gradientUnits="userSpaceOnUse" x1="398.013166354" x2="359.096631985" xlink:href="#u" y1="325.8164599992" y2="286.8999256302"/><linearGradient id="w" gradientTransform="matrix(-.990067 .166249 .166249 .990067 146.566376 -27.549917)" gradientUnits="userSpaceOnUse" x1="-294.3089" x2="-100.1496" xlink:href="#c" y1="271.5855" y2="271.5855"/><linearGradient id="x"><stop offset="0" stop-color="#e58200" stop-opacity="0"/><stop offset=".0396" stop-color="#e27f04" stop-opacity=".039216"/><stop offset=".4671" stop-color="#c15d2f" stop-opacity=".466667"/><stop offset=".8016" stop-color="#ad4949" stop-opacity=".8"/><stop offset="1" stop-color="#a64153"/></linearGradient><linearGradient id="y" gradientUnits="userSpaceOnUse" x1="440.343035523" x2="300.533846037" xlink:href="#x" y1="329.19606302" y2="298.7057471736"/><linearGradient id="z" gradientTransform="matrix(.928828 .380988 .380988 -.928828 -105.474659 579.356813)" gradientUnits="userSpaceOnUse" x1="118.39" x2="157.5561" xlink:href="#c" y1="260.1662" y2="273.8433"/><linearGradient id="A" gradientTransform="matrix(.928828 .380988 .380988 -.928828 -105.474659 579.356813)" gradientUnits="userSpaceOnUse" x1="175.7233" x2="195.0079" xlink:href="#c" y1="170.8239" y2="198.5284"/><linearGradient id="B" gradientTransform="matrix(.928828 .380988 .380988 -.928828 -105.474659 579.356813)" gradientUnits="userSpaceOnUse" x1="165.6149" x2="150.8435" xlink:href="#c" y1="197.2119" y2="215.2941"/><linearGradient id="C" gradientTransform="matrix(-.928828 .380988 -.380988 -.928828 426.862985 579.356813)" gradientUnits="userSpaceOnUse" x1="-33.2204" x2="5.9456" xlink:href="#c" y1="197.977" y2="211.654"/><linearGradient id="D" gradientTransform="matrix(-.928828 .380988 -.380988 -.928828 426.862985 579.356813)" gradientUnits="userSpaceOnUse" x1="24.1129" x2="43.3974" xlink:href="#c" y1="108.6346" y2="136.3392"/><linearGradient id="E" gradientTransform="matrix(-.928828 .380988 -.380988 -.928828 426.862985 579.356813)" gradientUnits="userSpaceOnUse" x1="14.0044" x2="-.767" xlink:href="#c" y1="135.0227" y2="153.1049"/><linearGradient id="F" gradientUnits="userSpaceOnUse" x1="95.3921233804" x2="134.7118328246" xlink:href="#c" y1="236.4008419706" y2="250.1315835568"/><linearGradient id="G" gradientUnits="userSpaceOnUse" x1="152.950284583" x2="172.310418392" xlink:href="#c" y1="146.70814147" y2="174.521298519"/><linearGradient id="H" gradientUnits="userSpaceOnUse" x1="142.802139046" x2="127.9729060074" xlink:href="#c" y1="173.199635206" y2="191.3527535944"/><linearGradient id="I" gradientTransform="matrix(-1.003922 0 0 1.003922 300.155233 0)" gradientUnits="userSpaceOnUse" x1="-90.0002" x2="-50.8342" xlink:href="#c" y1="235.4773" y2="249.1544"/><linearGradient id="J" gradientTransform="matrix(-1.003922 0 0 1.003922 300.155233 0)" gradientUnits="userSpaceOnUse" x1="-32.6669" x2="-13.3824" xlink:href="#c" y1="146.135" y2="173.8395"/><linearGradient id="K" gradientTransform="matrix(-1.003922 0 0 1.003922 300.155233 0)" gradientUnits="userSpaceOnUse" x1="-42.7754" x2="-57.5468" xlink:href="#c" y1="172.523" y2="190.6052"/><linearGradient id="L" gradientUnits="userSpaceOnUse" x1="242.950386" x2="242.950386" xlink:href="#c" y1="168.9936035948" y2="217.376218894"/><linearGradient id="M" gradientUnits="userSpaceOnUse" x1="242.950386" x2="242.950386" xlink:href="#j" y1="179.6612787668" y2="219.103466695"/><linearGradient id="N"><stop offset="0" stop-color="#00c6f6"/><stop offset=".3603" stop-color="#01c3f6"/><stop offset=".5984" stop-color="#03baf8"/><stop offset=".8005" stop-color="#07acfa"/><stop offset=".9826" stop-color="#0c96fe"/><stop offset="1" stop-color="#0d94fe"/></linearGradient><radialGradient id="O" cx="223.671067912" cy="328.1239747162" gradientUnits="userSpaceOnUse" r="121.4001713798" xlink:href="#N"/><linearGradient id="P" gradientUnits="userSpaceOnUse" x1="251.6706532764" x2="94.9618424112" xlink:href="#u" y1="343.7281351466" y2="343.7281351466"/><linearGradient id="Q" gradientUnits="userSpaceOnUse" x1="269.2136882654" x2="215.1224712976" xlink:href="#u" y1="389.4048794792" y2="229.4832170374"/><linearGradient id="R" gradientUnits="userSpaceOnUse" x1="242.950386" x2="242.950386" xlink:href="#u" y1="409.041493407" y2="445.414591389"/><linearGradient id="S" gradientUnits="userSpaceOnUse" x1="264.9989225328" x2="336.6110882056" xlink:href="#c" y1="374.1468713544" y2="472.945144395"/><radialGradient id="T" cx="168.3281609946" cy="248.6029115274" gradientUnits="userSpaceOnUse" r="81.4810201094" xlink:href="#N"/><linearGradient id="U" gradientUnits="userSpaceOnUse" x1="188.7046654364" x2="188.7046654364" xlink:href="#u" y1="287.9778366816" y2="320.2864560544"/><radialGradient id="V" cx="265.9056648832" cy="240.796715232" gradientUnits="userSpaceOnUse" r="90.8140813746" xlink:href="#N"/><linearGradient id="W" gradientUnits="userSpaceOnUse" x1="297.1961065636" x2="297.1961065636" xlink:href="#u" y1="287.9778366816" y2="320.2864560544"/><linearGradient id="X" gradientUnits="userSpaceOnUse" x1="239.0339858858" x2="246.9908708734" xlink:href="#c" y1="248.082679147" y2="342.9025096938"/><linearGradient id="Y" gradientUnits="userSpaceOnUse" x1="219.1986957942" x2="273.2142170432" xlink:href="#c" y1="55.3684065362" y2="114.7187692932"/><linearGradient id="Z" gradientUnits="userSpaceOnUse" x1="257.2072831064" x2="147.752980389" xlink:href="#x" y1="94.616134773" y2="-6.3416748818"/><linearGradient id="aa" gradientUnits="userSpaceOnUse" x1="314.5988936492" x2="173.887077893" xlink:href="#x" y1="153.1143685364" y2="12.4026531724"/><radialGradient id="ab" cx="234.7792640576" cy="33.7012599712" gradientUnits="userSpaceOnUse" r="100.726506026"><stop offset="0" stop-color="#ff4974"/><stop offset=".4791" stop-color="#fe4773"/><stop offset=".6517" stop-color="#fc406d"/><stop offset=".7747" stop-color="#f73565"/><stop offset=".8741" stop-color="#f12458"/><stop offset=".9583" stop-color="#e90e48"/><stop offset="1" stop-color="#e4003d"/></radialGradient><linearGradient id="ac" gradientUnits="userSpaceOnUse" x1="242.951003326" x2="242.951003326" y1="89.5647011902" y2="-17.1615438844"><stop offset=".0013" stop-color="#e7eeed" stop-opacity="0"/><stop offset=".4293" stop-color="#eef3f2" stop-opacity=".427451"/><stop offset="1" stop-color="#fff"/></linearGradient><linearGradient id="ad" gradientUnits="userSpaceOnUse" x1="263.2285060858" x2="135.382151544" xlink:href="#x" y1="238.9897560242" y2="126.6400418666"/><path d="m174.636719 313.078125-2.054688 12.222656c-7.855469 46.785157-63.558593 67.457031-99.953125 37.027344-.269531-.226563-.539062-.453125-.808594-.679687-3.285156-2.777344-2.027343-8.101563 2.164063-9.066407l.101563-.023437c53.992187-12.484375 100.550781-39.480469 100.550781-39.480469zm0 0" fill="url(#b)"/><path d="m69.125 366.527344-.835938-.703125c-3.117187-2.636719-4.457031-6.738281-3.5-10.699219.957032-3.941406 4.007813-6.957031 7.964844-7.871094l.097656-.023437c52.515626-12.144531 98.582032-38.617188 99.042969-38.882813 1.832031-1.0625 4.113281-.96875 5.855469.238282 1.742188 1.207031 2.628906 3.308593 2.277344 5.398437l-2.050782 12.222656c-4.023437 23.957031-20.035156 43.289063-42.828124 51.710938-7.691407 2.84375-15.605469 4.238281-23.429688 4.238281-15.316406 0-30.289062-5.34375-42.59375-15.628906zm6.605469-8.738282.40625.34375c15.550781 12.996094 36.199219 16.558594 55.222656 9.523438 19.070313-7.046875 32.464844-23.222656 35.832031-43.261719l.195313-1.171875c-16.601563 8.605469-51.886719 25.3125-91.65625 34.566406zm-.53125.121094h.007812zm0 0" fill="url(#d)"/><path d="m32.308594 315.195312c2.429687 4.03125 5.003906 7.96875 7.726562 11.804688 12.832032 18.097656 35.816406 25.898438 57.003906 19.320312 43.589844-13.527343 77.597657-33.242187 77.597657-33.242187-59.433594 16.558594-105.066407 6.332031-134.5625-6.664063-5.492188-2.421874-10.859375 3.640626-7.765625 8.78125zm0 0" fill="url(#f)"/><path d="m35.574219 330.164062c-2.792969-3.9375-5.46875-8.023437-7.949219-12.144531-2.660156-4.417969-2.175781-9.777343 1.230469-13.652343 3.421875-3.882813 8.6875-5.042969 13.421875-2.957032 27.191406 11.980469 71.96875 22.816406 130.890625 6.402344 2.652343-.738281 5.441406.609375 6.507812 3.144531 1.070313 2.539063.085938 5.472657-2.296875 6.855469-1.410156.816406-35.042968 20.175781-78.71875 33.730469-5.578125 1.730469-11.257812 2.566406-16.871094 2.566406-18.03125 0-35.359374-8.628906-46.214843-23.945313zm2.292969-18.746093c-.171876-.078125-.464844-.207031-.800782.175781-.320312.367188-.171875.617188-.074218.78125h.003906c2.339844 3.890625 4.863281 7.746094 7.496094 11.464844 11.496093 16.207031 31.960937 23.144531 50.925781 17.257812 14.902343-4.625 28.730469-10.015625 40.410156-15.074218-42.488281 4.269531-75.738281-4.816407-97.960937-14.605469zm0 0" fill="url(#g)"/><path d="m174.636719 313.078125c-90.832031-15.25-134.628907-60.402344-155.699219-98.515625-3.566406-6.453125-13.433594-3.980469-13.46875 3.390625-.082031 18.792969 2.667969 37.132813 7.90625 54.535156 5.132812 17.046875 17.96875 30.804688 34.59375 37.175781 29.484375 11.292969 72.304688 18.558594 126.667969 3.414063zm0 0" fill="url(#h)"/><path d="m46.015625 314.769531c-18.132813-6.945312-32.292969-22.164062-37.875-40.707031-5.488281-18.222656-8.2265625-37.109375-8.13671875-56.132812.02734375-5.820313 3.83984375-10.703126 9.49218775-12.148438 5.679687-1.453125 11.398437 1.015625 14.230468 6.136719 35.394532 64.027343 102.09375 87.417969 151.816407 95.769531 2.527343.425781 4.421875 2.546875 4.554687 5.105469.136719 2.558593-1.523437 4.867187-3.992187 5.554687-22.597657 6.296875-43.214844 8.730469-61.589844 8.730469-28.613281-.003906-51.785156-5.90625-68.5-12.308594zm-31.863281-97.5625c-.53125-.960937-1.351563-.980469-1.945313-.828125-.835937.214844-1.261719.753906-1.265625 1.601563-.082031 17.9375 2.5 35.746093 7.671875 52.929687 4.613281 15.324219 16.320313 27.902344 31.316407 33.648438 30.683593 11.753906 63.867187 14.664062 98.9375 8.714844-47.792969-12.0625-102.921876-38.550782-134.714844-96.066407zm0 0" fill="url(#i)"/><path d="m48.953125 117.253906c.1875-1.121094.386719-2.242187.59375-3.355468 1.03125-5.484376-6.078125-8.617188-9.320313-4.074219-11.417968 16.003906-20.4375 33.988281-26.4375 53.511719-.085937.277343-.171874.570312-.261718.875-4.988282 17.121093-2.855469 35.582031 5.851562 51.144531 21.238282 37.945312 65.058594 82.578125 155.257813 97.722656-85.148438-22.832031-140.582031-107.105469-125.683594-195.824219zm0 0" fill="url(#k)"/><path d="m173.730469 318.472656c-51.8125-8.699218-121.480469-33.191406-159.125-100.445312-9.382813-16.769532-11.6875-36.945313-6.324219-55.355469.09375-.324219.1875-.636719.28125-.941406 6.066406-19.746094 15.21875-38.277344 27.210938-55.082031 2.96875-4.152344 8.109374-5.601563 12.804687-3.601563 4.671875 1.992187 7.28125 6.867187 6.34375 11.867187-.203125 1.078126-.394531 2.160157-.578125 3.246094-6.949219 41.371094 1.761719 83.542969 24.523438 118.746094 22.617187 34.972656 57.128906 60.148438 97.1875 70.890625 2.816406.757813 4.546874 3.59375 3.925781 6.445313-.554688 2.550781-2.808594 4.308593-5.339844 4.308593-.296875 0-.605469-.027343-.910156-.078125zm-130.171875-202.125c.128906-.777344.265625-1.550781.40625-2.339844-10.957032 15.578126-19.347656 32.707032-24.941406 50.921876l-.246094.8125c-4.546875 15.605468-2.585938 32.714843 5.375 46.941406 22.101562 39.492187 56.164062 63.40625 90.660156 77.835937-17.679688-12.828125-33.007812-28.933593-45.128906-47.675781-24.246094-37.5-33.527344-82.421875-26.125-126.496094zm0 0" fill="url(#l)"/><path d="m311.265625 313.078125 2.050781 12.222656c7.859375 46.785157 63.558594 67.457031 99.953125 37.027344.269531-.226563.542969-.453125.808594-.679687 3.285156-2.777344 2.027344-8.101563-2.160156-9.066407l-.101563-.023437c-53.992187-12.484375-100.550781-39.480469-100.550781-39.480469zm0 0" fill="url(#m)"/><path d="m374.183594 382.15625c-7.828125 0-15.738282-1.394531-23.433594-4.238281-22.792969-8.421875-38.804688-27.753907-42.824219-51.710938l-2.054687-12.222656c-.351563-2.089844.539062-4.191406 2.277344-5.398437 1.742187-1.207032 4.023437-1.300782 5.859374-.238282.457032.265625 46.523438 26.742188 99.039063 38.882813l.097656.023437c3.960938.914063 7.011719 3.929688 7.964844 7.871094.960937 3.960938-.378906 8.0625-3.496094 10.699219l-.839843.703125c-12.300782 10.285156-27.277344 15.628906-42.589844 15.628906zm-55.671875-58.933594.199219 1.171875c3.363281 20.042969 16.757812 36.214844 35.832031 43.265625 19.023437 7.03125 39.667969 3.46875 55.21875-9.527344l.40625-.34375c-39.765625-9.253906-75.054688-25.960937-91.65625-34.566406zm92.183593 34.6875h.007813zm0 0" fill="url(#n)"/><path d="m453.589844 315.195312c-2.425782 4.03125-5.003906 7.96875-7.722656 11.804688-12.832032 18.097656-35.816407 25.898438-57.007813 19.320312-43.585937-13.527343-77.597656-33.242187-77.597656-33.242187 59.433593 16.558594 105.070312 6.332031 134.566406-6.664063 5.492187-2.421874 10.859375 3.640626 7.761719 8.78125zm0 0" fill="url(#o)"/><path d="m404.109375 354.109375c-5.613281 0-11.292969-.835937-16.867187-2.566406-43.675782-13.554688-77.3125-32.914063-78.722657-33.730469-2.382812-1.382812-3.367187-4.316406-2.296875-6.855469 1.066406-2.535156 3.859375-3.882812 6.507813-3.144531 58.925781 16.414062 103.703125 5.574219 130.890625-6.402344 4.734375-2.085937 10.003906-.925781 13.421875 2.957032 3.410156 3.875 3.894531 9.234374 1.230469 13.652343-2.480469 4.121094-5.15625 8.207031-7.945313 12.144531-10.859375 15.316407-28.183594 23.945313-46.21875 23.945313zm-54.039063-28.085937c11.679688 5.054687 25.507813 10.449218 40.410157 15.074218 18.964843 5.882813 39.429687-1.050781 50.925781-17.257812 2.632812-3.71875 5.15625-7.574219 7.5-11.464844.097656-.164062.25-.414062-.074219-.78125-.335937-.382812-.628906-.253906-.800781-.175781-22.21875 9.789062-55.46875 18.875-97.960938 14.605469zm0 0" fill="url(#p)"/><path d="m311.261719 313.078125c90.832031-15.25 134.632812-60.402344 155.699219-98.515625 3.566406-6.453125 13.433593-3.980469 13.46875 3.390625.085937 18.792969-2.667969 37.132813-7.90625 54.535156-5.132813 17.046875-17.964844 30.804688-34.59375 37.175781-29.484376 11.292969-72.300782 18.558594-126.667969 3.414063zm0 0" fill="url(#q)"/><path d="m417.195312 270.988281c-25.121093 18.574219-59.335937 34.265625-105.933593 42.089844 54.367187 15.144531 97.1875 7.878906 126.667969-3.414063 4.191406-1.605468 8.136718-3.683593 11.785156-6.160156zm0 0" fill="url(#r)"/><path d="m371.386719 327.074219c-18.378907 0-38.992188-2.429688-61.589844-8.726563-2.46875-.6875-4.128906-2.996094-3.996094-5.554687.136719-2.558594 2.03125-4.683594 4.554688-5.105469 49.722656-8.351562 116.425781-31.742188 151.820312-95.769531 2.828125-5.121094 8.546875-7.589844 14.226563-6.136719 5.652344 1.445312 9.46875 6.328125 9.496094 12.148438.085937 19.023437-2.652344 37.910156-8.136719 56.132812-5.585938 18.542969-19.742188 33.757812-37.875 40.707031-16.714844 6.402344-39.890625 12.304688-68.5 12.304688zm-34.355469-13.800781c35.074219 5.949218 68.257812 3.039062 98.941406-8.714844 14.996094-5.746094 26.699219-18.324219 31.3125-33.648438 5.171875-17.183594 7.753906-34.992187 7.675782-52.929687-.003907-.847657-.429688-1.386719-1.265626-1.601563-.59375-.152344-1.417968-.132812-1.949218.828125-31.792969 57.515625-86.921875 84.003907-134.714844 96.066407zm0 0" fill="url(#s)"/><path d="m436.949219 117.253906c-.1875-1.121094-.386719-2.242187-.597657-3.355468-1.03125-5.484376 6.078126-8.617188 9.324219-4.074219 11.417969 16.003906 20.4375 33.988281 26.433594 53.511719.085937.277343.175781.570312.261719.875 4.992187 17.121093 2.859375 35.582031-5.851563 51.144531-21.234375 37.945312-65.054687 82.578125-155.257812 97.722656 85.152343-22.832031 140.585937-107.105469 125.6875-195.824219zm0 0" fill="url(#t)"/><path d="m400.894531 254.683594c-22.359375 27.703125-53.285156 48.648437-89.632812 58.394531 46.597656-7.824219 80.8125-23.515625 105.9375-42.089844zm0 0" fill="url(#v)"/><path d="m311.257812 318.550781c-2.527343 0-4.785156-1.757812-5.339843-4.308593-.621094-2.851563 1.109375-5.6875 3.925781-6.445313 40.058594-10.742187 74.570312-35.917969 97.1875-70.890625 22.761719-35.203125 31.472656-77.375 24.523438-118.746094-.183594-1.085937-.375-2.171875-.578126-3.246094-.9375-4.996093 1.671876-9.875 6.34375-11.867187 4.695313-2 9.839844-.550781 12.804688 3.601563 11.992188 16.804687 21.144531 35.335937 27.210938 55.082031.097656.304687.1875.617187.28125.941406 5.367187 18.410156 3.058593 38.585937-6.324219 55.355469-37.640625 67.253906-107.308594 91.746094-159.125 100.445312-.304688.050782-.609375.078125-.910157.078125zm131.085938-202.203125c7.398438 44.074219-1.878906 88.996094-26.125 126.496094-12.121094 18.742188-27.453125 34.84375-45.128906 47.675781 34.496094-14.429687 68.558594-38.34375 90.660156-77.835937 7.960938-14.226563 9.917969-31.335938 5.371094-46.941406l-.242188-.8125c-5.59375-18.214844-13.984375-35.34375-24.941406-50.921876.136719.789063.273438 1.5625.40625 2.339844zm0 0" fill="url(#w)"/><path d="m374.183594 382.15625c15.3125 0 30.289062-5.34375 42.59375-15.632812l.835937-.703126c3.117188-2.632812 4.457031-6.734374 3.496094-10.695312-.28125-1.175781-.773437-2.253906-1.398437-3.230469 12.074218-3.46875 22.957031-10.925781 30.617187-21.730469 2.792969-3.9375 5.464844-8.023437 7.945313-12.144531.839843-1.390625 1.359374-2.875 1.582031-4.375l-14.113281-14.113281c-2.964844 1.933594-6.121094 3.589844-9.457032 4.894531-.21875.082031-.429687.171875-.652344.253907-1.375.523437-2.757812 1.015624-4.144531 1.503906-22.996093 8.054687-54.871093 13.652344-94.347656 7.0625.054687-.015625.109375-.027344.164063-.042969 1.226562-.3125 2.460937-.632813 3.699218-.964844.351563-.09375.699219-.1875 1.050782-.285156 1.234374-.332031 2.46875-.675781 3.707031-1.027344.3125-.089843.628906-.183593.941406-.273437 1.109375-.320313 2.21875-.648438 3.332031-.988282.273438-.082031.542969-.160156.816406-.242187 1.238282-.378906 2.480469-.773437 3.726563-1.171875.386719-.125.777344-.25 1.164063-.378906 1.214843-.394532 2.433593-.800782 3.652343-1.21875.390625-.132813.785157-.269532 1.175781-.40625 1.121094-.390625 2.242188-.785156 3.363282-1.191406.382812-.140626.765625-.28125 1.152344-.421876 1.082031-.398437 2.167968-.808593 3.253906-1.222656.414062-.160156.832031-.320312 1.25-.480468 1.191406-.464844 2.378906-.9375 3.566406-1.421876.449219-.183593.898438-.367187 1.347656-.554687 1.199219-.496094 2.394532-.996094 3.59375-1.515625.378906-.164062.757813-.332031 1.136719-.5.984375-.429688 1.964844-.871094 2.949219-1.316406.417968-.191406.832031-.378906 1.25-.570313 1.171875-.539062 2.339844-1.097656 3.503906-1.65625.472656-.230469.941406-.457031 1.414062-.6875 1.160157-.570312 2.316407-1.148437 3.46875-1.738281.441407-.226562.882813-.457031 1.320313-.683594.949219-.496094 1.898437-1 2.84375-1.507812.488281-.261719.976563-.527344 1.464844-.792969 1.046875-.574219 2.089843-1.164063 3.132812-1.757813.46875-.265624.9375-.535156 1.40625-.808593 1.125-.652344 2.246094-1.316407 3.363281-1.992188.460938-.277343.921876-.5625 1.382813-.847656.980469-.605469 1.957031-1.214844 2.933594-1.839844.503906-.324219 1.011719-.652343 1.515625-.980469.929687-.605468 1.855468-1.222656 2.777344-1.847656.441406-.296875.878906-.589844 1.320312-.890625 1.09375-.753906 2.183594-1.523437 3.269531-2.304687.449219-.320313.894531-.644532 1.339844-.972656.398437-.289063.789063-.585938 1.179687-.878907l-7.84375-7.84375c-2.363281 1.722657-4.75 3.398438-7.167968 4.996094-.019532.015625-.042969.027344-.066406.042969-.972657.644531-1.949219 1.273437-2.925782 1.894531-.074218.046875-.152344.09375-.226562.140625-4.058594 2.566406-8.179688 4.960938-12.339844 7.195312-.089844.050782-.179688.097657-.265625.144532-1 .535156-2 1.0625-3.003906 1.578125-.023438.011719-.046875.023437-.070313.035156-3.136718 1.613281-6.292968 3.140625-9.457031 4.582031-.113281.050782-.226563.105469-.34375.15625-.957031.433594-1.914063.859375-2.871094 1.277344-.085937.039062-.171875.078125-.257812.113281-1.046875.457031-2.09375.90625-3.140625 1.34375 12.511718-9.082031 23.839844-19.8125 33.695312-31.949219l-7.78125-7.777343c-22.222656 27.746093-52.625 47.742187-87.160156 57.003906-.007812.003906-.015625.007813-.027344.007813-.042968.015624-.082031.03125-.125.042968-.070312.023438-.140625.039063-.210937.0625-.070313.027344-.136719.058594-.207031.085938-.09375.039062-.191407.078125-.289063.121094-.039063.015624-.078125.027343-.117187.046874-.011719.003907-.023438.011719-.035157.015626-.046875.023437-.089843.054687-.132812.078124-.09375.050782-.183594.105469-.273438.160157-.09375.058593-.1875.101562-.277343.164062-.019532.011719-.035157.03125-.054688.042969-.027344.023438-.058594.042969-.085938.0625-.039062.03125-.074218.058594-.109374.085938-.0625.050781-.121094.105468-.183594.15625-.101563.089843-.203125.179687-.296875.273437-.054688.050781-.109375.101563-.160157.160156-.019531.023438-.046874.042969-.070312.066407-.027344.03125-.050781.070312-.078125.101562-.101563.121094-.195313.246094-.285156.375-.050781.070312-.105469.136719-.15625.210938-.015625.03125-.035157.054687-.054688.085937-.011719.015625-.019531.03125-.03125.050781-.128906.214844-.242187.4375-.339843.667969-.007813.011719-.015626.023437-.019532.035156-.003906.003907-.003906.003907-.003906.007813-.011719.035156-.019531.070312-.035156.105468-.035156.085938-.058594.175782-.089844.265626-.046875.144531-.097656.285156-.132812.429687-.007813.039063-.023438.082031-.03125.121094-.011719.050781-.015626.097656-.027344.148437-.015625.078125-.027344.15625-.039063.238282-.015625.117187-.027343.234374-.039062.351562-.003907.058594-.019531.109375-.019531.167969-.003907.015625 0 .03125 0 .050781-.003907.066406 0 .136719 0 .207031 0 .050781-.007813.105469-.003907.160157 0 .09375.019531.191406.027344.285156.007813.101562.007813.207031.019531.3125.007813.042968.015625.089844.019532.132812.003906.015625.003906.027344.007812.042969l2.050781 12.222656c4.023438 23.953125 20.03125 43.285157 42.828125 51.710938 7.691406 2.84375 15.601563 4.238281 23.429688 4.238281zm47.90625-61.625c.234375-.0625.46875-.128906.699218-.191406.894532-.242188 1.777344-.492188 2.648438-.742188.359375-.105468.71875-.207031 1.074219-.3125.960937-.28125 1.914062-.570312 2.851562-.867187.609375-.1875 1.203125-.382813 1.804688-.578125.367187-.121094.738281-.238282 1.105469-.363282.65625-.214843 1.304687-.433593 1.945312-.652343.226562-.078125.449219-.160157.671875-.238281 1.265625-.441407 2.5-.886719 3.699219-1.335938.234375-.085938.472656-.171875.707031-.261719.191406-.074219.398437-.144531.589844-.21875.085937-.03125.164062-.070312.25-.105469 2.765625-1.0625 5.402343-2.148437 7.894531-3.246093.175781-.078125.46875-.207031.804688.175781.320312.367188.167968.617188.070312.78125-2.34375 3.890625-4.867188 7.746094-7.5 11.464844-11.414062 16.089844-31.664062 23.035156-50.511719 17.378906-.546875-.171875-1.097656-.34375-1.644531-.515625-.925781-.292969-1.847656-.585937-2.769531-.882813-1.328125-.429687-2.644531-.867187-3.953125-1.304687-.207032-.070313-.417969-.144531-.628906-.214844-11.621094-3.929687-22.398438-8.210937-31.792969-12.273437 28.261719 2.832031 52.429687-.242188 71.984375-5.496094zm-103.378906 3.863281-.195313-1.171875c16.601563 8.605469 51.886719 25.3125 91.65625 34.566406l-.40625.34375c-15.550781 12.996094-36.199219 16.558594-55.222656 9.527344-19.074219-7.050781-32.46875-23.222656-35.832031-43.265625zm0 0" fill="url(#y)"/><path d="m135.199219 376.625c-6.316407 15.402344-6.863281 31.730469-2.644531 46.59375 2.429687 8.566406-2.113282 17.582031-10.328126 21.015625l-4.269531 1.785156c-9.871093 4.128907-21.125-1.472656-23.75-11.84375-4.53125-17.910156-3.578125-37.371093 3.972657-55.777343 18.746093-45.703126 70.988281-67.554688 116.6875-48.808594 6.507812 2.671875 12.511718 6.039062 18 9.949218-1.410157-.691406-2.839844-1.355468-4.316407-1.960937-36.558593-14.996094-78.355469 2.484375-93.351562 39.046875zm0 0" fill="url(#z)"/><path d="m118.058594 455.582031-4.390625 10.710938c-3.179688 7.746093.523437 16.605469 8.273437 19.785156 4.039063 1.65625 7.171875 4.976563 8.589844 9.105469l4.582031 13.34375c1.519531 4.425781 7.675781 4.6875 9.566407.410156l5.933593-13.421875c6.796875-15.378906-.433593-33.339844-15.988281-39.71875l-8.621094-3.535156c-3.113281-1.277344-6.667968.210937-7.945312 3.320312zm0 0" fill="url(#A)"/><path d="m123.433594 436.566406-14.421875 6.03125c-6.15625 2.574219-9.058594 9.652344-6.484375 15.808594 2.574218 6.152344 9.648437 9.054688 15.804687 6.480469l14.421875-6.03125c6.15625-2.574219 9.058594-9.648438 6.484375-15.804688s-9.652343-9.058593-15.804687-6.484375zm0 0" fill="url(#B)"/><path d="m350.699219 376.625c6.320312 15.402344 6.863281 31.730469 2.648437 46.59375-2.429687 8.566406 2.113282 17.582031 10.328125 21.015625l4.269531 1.785156c9.871094 4.128907 21.121094-1.472656 23.746094-11.84375 4.535156-17.910156 3.582032-37.371093-3.96875-55.777343-18.746094-45.703126-70.988281-67.554688-116.691406-48.808594-6.503906 2.671875-12.507812 6.039062-18 9.949218 1.410156-.691406 2.84375-1.355468 4.316406-1.960937 36.5625-14.996094 78.355469 2.484375 93.351563 39.046875zm0 0" fill="url(#C)"/><path d="m367.839844 455.582031 4.394531 10.710938c3.179687 7.746093-.527344 16.605469-8.277344 19.785156-4.039062 1.65625-7.167969 4.976563-8.585937 9.105469l-4.585938 13.34375c-1.519531 4.425781-7.671875 4.6875-9.5625.410156l-5.933594-13.421875c-6.796874-15.378906.429688-33.339844 15.988282-39.71875l8.621094-3.535156c3.109374-1.277344 6.667968.210937 7.941406 3.320312zm0 0" fill="url(#D)"/><path d="m362.46875 436.566406 14.421875 6.03125c6.15625 2.574219 9.058594 9.652344 6.484375 15.808594-2.574219 6.152344-9.652344 9.054688-15.808594 6.480469l-14.421875-6.03125c-6.152343-2.574219-9.054687-9.648438-6.480469-15.804688 2.574219-6.15625 9.648438-9.058593 15.804688-6.484375zm0 0" fill="url(#E)"/><path d="m122.269531 254.117188c0-16.648438 5.695313-31.960938 15.234375-44.113282 5.5-7 4.71875-17.066406-1.578125-23.363281l-3.273437-3.273437c-7.566406-7.566407-20.101563-6.652344-26.464844 1.945312-10.992188 14.851562-17.496094 33.21875-17.496094 53.113281 0 49.398438 40.042969 89.441407 89.4375 89.441407 7.03125 0 13.863282-.835938 20.429688-2.371094-1.566406.101562-3.144532.171875-4.738282.171875-39.515624 0-71.550781-32.035157-71.550781-71.550781zm0 0" fill="url(#F)"/><path d="m136.375 174.5625v-11.578125c0-8.375 6.792969-15.164063 15.167969-15.164063 4.367187 0 8.519531-1.882812 11.402343-5.167968l9.300782-10.605469c3.085937-3.515625 8.878906-1.421875 9.007812 3.253906l.394532 14.667969c.449218 16.808594-13.050782 30.679688-29.867188 30.679688h-9.316406c-3.363282 0-6.089844-2.722657-6.089844-6.085938zm0 0" fill="url(#G)"/><path d="m134.132812 194.191406-11.054687-11.054687c-4.71875-4.714844-4.71875-12.363281 0-17.082031 4.714844-4.71875 12.363281-4.71875 17.082031 0l11.054688 11.054687c4.71875 4.71875 4.71875 12.367187 0 17.082031-4.71875 4.71875-12.367188 4.71875-17.082032 0zm0 0" fill="url(#H)"/><path d="m363.628906 254.117188c0-16.648438-5.691406-31.960938-15.234375-44.113282-5.496093-7-4.714843-17.066406 1.582031-23.363281l3.273438-3.273437c7.5625-7.566407 20.101562-6.652344 26.464844 1.945312 10.992187 14.851562 17.496094 33.21875 17.496094 53.113281 0 49.398438-40.042969 89.441407-89.441407 89.441407-7.03125 0-13.863281-.835938-20.425781-2.371094 1.566406.101562 3.140625.171875 4.738281.171875 39.515625 0 71.546875-32.035157 71.546875-71.550781zm0 0" fill="url(#I)"/><path d="m349.523438 174.5625v-11.578125c0-8.375-6.789063-15.164063-15.164063-15.164063-4.367187 0-8.523437-1.882812-11.402344-5.167968l-9.304687-10.605469c-3.082032-3.515625-8.878906-1.421875-9.003906 3.253906l-.394532 14.667969c-.453125 16.808594 13.050782 30.679688 29.867188 30.679688h9.316406c3.363281 0 6.085938-2.722657 6.085938-6.085938zm0 0" fill="url(#J)"/><path d="m351.769531 194.191406 11.054688-11.054687c4.714843-4.714844 4.714843-12.363281 0-17.082031-4.71875-4.71875-12.367188-4.71875-17.085938 0l-11.050781 11.054687c-4.71875 4.71875-4.71875 12.367187 0 17.082031 4.714844 4.71875 12.363281 4.71875 17.082031 0zm0 0" fill="url(#K)"/><path d="m302.546875 226.722656c0 32.914063-26.683594 59.597656-59.597656 59.597656-32.914063 0-59.59375-26.683593-59.59375-59.597656 0-32.914062 26.679687-59.59375 59.59375-59.59375 32.914062 0 59.597656 26.679688 59.597656 59.59375zm0 0" fill="url(#L)"/><path d="m291.535156 226.722656c0 26.832032-21.753906 48.585938-48.585937 48.585938s-48.582031-21.753906-48.582031-48.585938c0-26.832031 21.75-48.582031 48.582031-48.582031s48.585937 21.75 48.585937 48.582031zm0 0" fill="url(#M)"/><path d="m257.71875 461.058594h-29.539062c-48.59375 0-87.984376-39.394532-87.984376-87.984375v-58.691407c0-48.589843 39.390626-87.984374 87.984376-87.984374h29.539062c48.59375 0 87.984375 39.394531 87.984375 87.984374v58.691407c0 48.589843-39.390625 87.984375-87.984375 87.984375zm0 0" fill="url(#O)"/><path d="m242.949219 461.058594c-30.523438 0-55.273438-24.746094-55.273438-55.273438v-124.113281c0-30.527344 24.75-55.273437 55.273438-55.273437 30.527343 0 55.273437 24.746093 55.273437 55.273437v124.113281c0 30.527344-24.746094 55.273438-55.273437 55.273438zm0 0" fill="url(#P)"/><path d="m140.195312 314.382812v9.296876c.421876.402343.847657.800781 1.285157 1.183593l134.328125 134.328125c39.914062-8.34375 69.894531-43.726562 69.894531-86.121094v-58.6875c0-48.59375-39.390625-87.984374-87.984375-87.984374h-29.539062c-48.59375 0-87.984376 39.394531-87.984376 87.984374zm0 0" fill="url(#Q)"/><path d="m143.839844 398.183594c10.808594 36.355468 44.476562 62.875 84.339844 62.875h29.539062c39.867188 0 73.535156-26.519532 84.34375-62.875zm0 0" fill="url(#R)"/><path d="m257.71875 467.371094h-29.539062c-51.996094 0-94.296876-42.300782-94.296876-94.300782v-58.6875c0-51.996093 42.300782-94.300781 94.296876-94.300781h29.539062c52 0 94.300781 42.304688 94.300781 94.300781v58.6875c0 52-42.300781 94.300782-94.300781 94.300782zm-29.539062-234.660156c-45.03125 0-81.671876 36.636718-81.671876 81.671874v58.6875c0 45.035157 36.640626 81.671876 81.671876 81.671876h29.539062c45.035156 0 81.671875-36.636719 81.671875-81.671876v-58.6875c0-45.035156-36.636719-81.671874-81.671875-81.671874zm0 0" fill="url(#S)"/><path d="m203.34375 328.152344h-36.402344c-17.9375 0-32.480468-14.542969-32.480468-32.480469 0-41.980469 34.03125-76.007813 76.011718-76.007813 17.9375 0 32.476563 14.539063 32.476563 32.476563v36.40625c0 21.871094-17.730469 39.605469-39.605469 39.605469zm0 0" fill="url(#T)"/><path d="m242.949219 284.140625v4.402344c0 21.875-17.726563 39.605469-39.605469 39.605469h-36.398438c-17.941406 0-32.488281-14.539063-32.488281-32.476563 0-3.917969.300781-7.773437.867188-11.53125zm0 0" fill="url(#U)"/><path d="m282.554688 328.152344h36.40625c17.933593 0 32.476562-14.542969 32.476562-32.480469 0-41.980469-34.03125-76.007813-76.007812-76.007813-17.9375 0-32.480469 14.539063-32.480469 32.476563v36.40625c0 21.871094 17.734375 39.605469 39.605469 39.605469zm0 0" fill="url(#V)"/><path d="m351.441406 295.671875c0 17.9375-14.546875 32.476563-32.484375 32.476563h-36.402343c-21.875 0-39.605469-17.730469-39.605469-39.605469v-4.402344h107.628906c.566406 3.757813.863281 7.613281.863281 11.53125zm0 0" fill="url(#W)"/><path d="m275.429688 213.347656c-17.863282 0-47.09375 0-64.960938 0-45.402344 0-82.339844 36.953125-82.320312 82.363282.011718 21.3125 17.480468 38.753906 38.792968 38.753906h36.402344c11.363281 0 21.769531-4.152344 29.792969-11.015625 5.648437-4.828125 13.980469-4.828125 19.625 0 8.023437 6.863281 18.433593 11.015625 29.792969 11.015625h36.402343c21.3125 0 38.785157-17.441406 38.792969-38.753906.023438-45.410157-36.914062-82.363282-82.320312-82.363282zm-72.085938 108.488282h-36.402344c-14.425781 0-26.164062-11.738282-26.164062-26.164063 0-38.429687 31.265625-69.695313 69.695312-69.695313 14.425782 0 26.164063 11.738282 26.164063 26.164063v36.40625c0 18.355469-14.933594 33.289063-33.292969 33.289063zm115.617188 0h-36.402344c-18.359375 0-33.292969-14.933594-33.292969-33.292969v-36.402344c0-14.425781 11.738281-26.164063 26.164063-26.164063 38.429687 0 69.695312 31.265626 69.695312 69.695313 0 14.425781-11.738281 26.164063-26.164062 26.164063zm0 0" fill="url(#X)"/><path d="m324.417969 81.464844c0 44.992187-36.476563 81.46875-81.46875 81.46875-44.992188 0-81.464844-36.476563-81.464844-81.46875 0-44.992188 36.472656-81.464844 81.464844-81.464844 44.992187 0 81.46875 36.472656 81.46875 81.464844zm0 0" fill="url(#Y)"/><path d="m315.03125 81.464844c0 39.8125-32.269531 72.082031-72.082031 72.082031-39.808594 0-72.082031-32.269531-72.082031-72.082031 0-39.808594 32.273437-72.082032 72.082031-72.082032 39.8125 0 72.082031 32.273438 72.082031 72.082032zm0 0" fill="url(#Z)"/><path d="m324.414062 81.464844c0-2.066406-.15625-4.09375-.308593-6.125l-36.597657-36.597656c-11.246093-11.722657-27.03125-19.054688-44.558593-19.054688-34.121094 0-61.777344 27.660156-61.777344 61.777344 0 17.527344 7.328125 33.3125 19.050781 44.554687l36.601563 36.601563c2.03125.152344 4.058593.308594 6.128906.308594 44.988281 0 81.460937-36.472657 81.460937-81.464844zm0 0" fill="url(#aa)"/><path d="m304.730469 81.464844c0 34.121094-27.660157 61.78125-61.78125 61.78125-34.117188 0-61.777344-27.660156-61.777344-61.78125 0-34.117188 27.660156-61.777344 61.777344-61.777344 34.121093 0 61.78125 27.660156 61.78125 61.777344zm0 0" fill="url(#ab)"/><path d="m287.957031 66.699219c0-21.527344-20.148437-38.980469-45.007812-38.980469-24.855469 0-45.003907 17.453125-45.003907 38.980469 0 21.527343 20.148438 38.976562 45.003907 38.976562 24.859375 0 45.007812-17.449219 45.007812-38.976562zm0 0" fill="url(#ac)"/><path d="m275.429688 213.347656c-17.863282 0-47.09375 0-64.960938 0-9.59375 0-18.800781 1.667969-27.371094 4.699219l10.101563 10.097656c5.523437-1.414062 11.3125-2.167969 17.273437-2.167969 14.425782 0 26.164063 11.738282 26.164063 26.164063v19.441406l12.628906 12.628907v-32.070313c0-14.429687 11.734375-26.164063 26.164063-26.164063 38.425781 0 69.691406 31.265626 69.691406 69.695313 0 14.425781-11.738282 26.164063-26.164063 26.164063h-32.066406l12.625 12.625h19.441406c21.3125 0 38.785157-17.4375 38.792969-38.75.023438-45.410157-36.914062-82.363282-82.320312-82.363282zm0 0" fill="url(#ad)"/></svg>