<?xml version="1.0" encoding="iso-8859-1"?>
<!-- Generator: Adobe Illustrator 19.0.0, SVG Export Plug-In . SVG Version: 6.00 Build 0)  -->
<svg version="1.1" id="Layer_1" xmlns="http://www.w3.org/2000/svg" xmlns:xlink="http://www.w3.org/1999/xlink" x="0px" y="0px"
	 viewBox="0 0 512 512" style="enable-background:new 0 0 512 512;" xml:space="preserve">
<path style="fill:#E43017;" d="M458.705,466.362l-88.788-131.111l-40.416-29.866l115.305,170.384c1.621,2.398,4.266,3.69,6.957,3.69
	c1.618,0,3.254-0.468,4.695-1.443C460.297,475.418,461.304,470.2,458.705,466.362z"/>
<path style="fill:#FF7A23;" d="M194.452,512h-67.135c-4.636,0-8.392-3.756-8.392-8.392s3.756-8.392,8.392-8.392h58.69
	c-0.263-20.537-1.502-39.918-3.689-57.717c-0.565-4.6,2.706-8.788,7.305-9.353c4.592-0.57,8.787,2.706,9.353,7.305
	c2.566,20.884,3.867,43.815,3.867,68.157C202.844,508.243,199.087,512,194.452,512z"/>
<path style="fill:#FFEAAD;" d="M215.886,269.1v168.398h-33.568c-10.372-84.367-39.901-124.671-63.331-168.398H215.886z"/>
<path style="fill:#FF9926;" d="M261.332,512h-67.135c-4.636,0-8.392-3.756-8.392-8.392s3.756-8.392,8.392-8.392h58.615
	c0-22.192-3.445-40.139-8.427-57.717c-1.264-4.459,1.327-7.834,5.786-9.098c4.459-1.26,9.099,1.328,10.362,5.786
	c6.099,21.519,9.192,44.876,9.192,69.421C269.724,508.243,265.968,512,261.332,512z"/>
<path style="fill:#FFB32D;" d="M227.713,174.731l-98.98-89.078L152.555,0h33.568c0,0,0,21.338,0,33.568
	c0,18.999-0.481,36.276-1.443,52.086L227.713,174.731z"/>
<path style="fill:#FECC33;" d="M227.713,174.731l-47.935-70.839c-6.277-9.287-17.164-15.81-28.667-18.238
	c0.481-7.9,0.839-16.18,1.085-24.851c0.235-8.672,0.358-17.735,0.358-27.235c0-12.23,0-33.568,0-33.568H85.419l0,0H51.851
	c0,0,0,21.338,0,33.568c0,132.805,23.766,181.568,67.136,235.534c25.299,31.464,66.744,61.16,96.899,106.79
	c11.76,17.769,21.797,37.954,28.499,61.608h33.568l-7.049-20.774c2.631,6.621,4.997,13.533,7.049,20.774v-76.568
	c9.768-6.781,27.951-24.381,27.951-24.381L227.713,174.731z"/>
<path style="fill:#FF7A23;" d="M213.346,103.892l156.571,231.36c-10.227,1.846-20.722,2.932-31.419,3.167l-158.72-178.58
	l-6.21-63.018l11.111-11.167C196.182,88.082,207.069,94.605,213.346,103.892z"/>
<g>
	<path style="fill:#FF9926;" d="M179.778,103.892l158.72,234.527c-1.555,0.034-3.111,0.056-4.666,0.056
		c-9.477,0-18.798-0.66-27.928-1.925c-97.705-13.595-172.919-97.47-172.919-198.923l40.583-40.807
		C175.94,98.947,178.033,101.307,179.778,103.892z"/>
	<path style="fill:#FF9926;" d="M118.989,75.526c-4.636,0-8.392-3.756-8.392-8.392c0-13.881-11.294-25.176-25.176-25.176
		c-4.636,0-8.392-3.756-8.392-8.392s3.756-8.392,8.392-8.392c13.71,0,25.905,6.609,33.568,16.81
		c7.662-10.2,19.858-16.81,33.568-16.81c4.636,0,8.392,3.756,8.392,8.392s-3.756,8.392-8.392,8.392
		c-13.881,0-25.176,11.294-25.176,25.176C127.381,71.769,123.625,75.526,118.989,75.526z"/>
</g>
<g>
</g>
<g>
</g>
<g>
</g>
<g>
</g>
<g>
</g>
<g>
</g>
<g>
</g>
<g>
</g>
<g>
</g>
<g>
</g>
<g>
</g>
<g>
</g>
<g>
</g>
<g>
</g>
<g>
</g>
</svg>
