<svg height="512pt" viewBox="0 0 512.001 512" width="512pt" xmlns="http://www.w3.org/2000/svg"><path d="m364.882812 163.390625h-217.765624c-2.371094 0-4.222657-2.050781-3.976563-4.414063l13.117187-125.921874c.214844-2.039063 1.929688-3.585938 3.980469-3.585938h191.523438c2.050781 0 3.765625 1.546875 3.980469 3.585938l13.117187 125.921874c.246094 2.363282-1.605469 4.414063-3.976563 4.414063zm0 0" fill="#eceff1"/><path d="m340.414062 252.875-71.425781-225.667969c-1.25-3.949219-23.246093-4.128906-24.613281-.21875l-80.269531 228.933594c-1.371094 3.910156.683593 8.1875 4.59375 9.558594.820312.289062 1.660156.425781 2.480469.425781 3.097656 0 5.996093-1.933594 7.078124-5.019531l78.289063-223.285157 69.566406 219.800782c1.011719 3.195312 3.964844 5.238281 7.148438 5.238281.75 0 1.511719-.113281 2.261719-.351563 3.953124-1.25 6.140624-5.464843 4.890624-9.414062zm0 0" fill="#455a64"/><path d="m271.453125 249.667969h-30.90625v-234.214844c0-8.535156 6.917969-15.453125 15.453125-15.453125s15.453125 6.917969 15.453125 15.453125zm0 0" fill="#546e7a"/><path d="m286.90625 265.421875h-61.8125v-52.171875c0-8.535156 6.917969-15.453125 15.453125-15.453125h30.90625c8.53125 0 15.453125 6.917969 15.453125 15.453125zm0 0" fill="#fdd835"/><path d="m271.453125 197.796875h-30.90625c8.535156 0 15.453125 6.917969 15.453125 15.453125v52.171875h30.90625v-52.171875c0-8.535156-6.917969-15.453125-15.453125-15.453125zm0 0" fill="#fbc02d"/><path d="m356.636719 330.988281c29.648437 0 88.917969-9.976562 88.917969-79.210937 0-32.109375-27.097657-71.828125-27.097657-102.023438 0-18.8125-.421875-32.75 6.363281-40.589844 1.980469-2.285156-.476562-5.726562-3.296874-4.59375-11.070313 4.4375-26.761719 16.242188-26.761719 47.460938 0 41.917969 10.671875 97.273438-38.382813 97.273438h-201.199218c-49.054688 0-37.949219-55.355469-37.949219-97.273438 0-31.21875-15.691407-43.023438-26.761719-47.460938-2.8125-1.132812-5.277344 2.308594-3.289062 4.59375 6.785156 7.84375 5.757812 21.703126 5.757812 40.515626 0 30.195312-26.492188 69.988281-26.492188 102.097656 0 68.777344 59.339844 79.210937 88.992188 79.210937zm0 0" fill="#795548"/><path d="m418.460938 149.753906c0-18.8125-.421876-32.75 6.363281-40.589844 1.976562-2.289062-.480469-5.730468-3.300781-4.59375-11.070313 4.4375-26.761719 16.238282-26.761719 47.460938 0 10.6875.691406 22.246094.910156 33.542969 7.984375 22.203125 18.976563 45.746093 18.976563 66.199219 0 69.234374-59.265626 79.210937-88.917969 79.210937h30.902343c29.652344 0 88.917969-9.976563 88.917969-79.210937.003907-32.105469-27.089843-71.824219-27.089843-102.019532zm0 0" fill="#6d4c41"/><g fill="#5d4037"><path d="m151.777344 274.039062h-9.097656c-4.144532 0-7.5 3.355469-7.5 7.5 0 4.140626 3.355468 7.5 7.5 7.5h9.097656c4.144531 0 7.5-3.359374 7.5-7.5 0-4.144531-3.355469-7.5-7.5-7.5zm0 0"/><path d="m188.035156 274.039062h-9.097656c-4.144531 0-7.5 3.355469-7.5 7.5 0 4.140626 3.355469 7.5 7.5 7.5h9.097656c4.144532 0 7.5-3.359374 7.5-7.5 0-4.144531-3.355468-7.5-7.5-7.5zm0 0"/><path d="m224.292969 274.039062h-9.101563c-4.140625 0-7.5 3.355469-7.5 7.5 0 4.140626 3.359375 7.5 7.5 7.5h9.101563c4.140625 0 7.5-3.359374 7.5-7.5 0-4.144531-3.359375-7.5-7.5-7.5zm0 0"/><path d="m260.550781 274.039062h-9.101562c-4.140625 0-7.5 3.355469-7.5 7.5 0 4.140626 3.359375 7.5 7.5 7.5h9.101562c4.140625 0 7.5-3.359374 7.5-7.5 0-4.144531-3.359375-7.5-7.5-7.5zm0 0"/><path d="m296.808594 274.039062h-9.101563c-4.140625 0-7.5 3.355469-7.5 7.5 0 4.140626 3.359375 7.5 7.5 7.5h9.101563c4.140625 0 7.5-3.359374 7.5-7.5 0-4.144531-3.359375-7.5-7.5-7.5zm0 0"/><path d="m333.0625 274.039062h-9.097656c-4.144532 0-7.5 3.355469-7.5 7.5 0 4.140626 3.355468 7.5 7.5 7.5h9.097656c4.144531 0 7.5-3.359374 7.5-7.5 0-4.144531-3.355469-7.5-7.5-7.5zm0 0"/><path d="m369.320312 274.039062h-9.097656c-4.144531 0-7.5 3.355469-7.5 7.5 0 4.140626 3.355469 7.5 7.5 7.5h9.097656c4.144532 0 7.5-3.359374 7.5-7.5 0-4.144531-3.355468-7.5-7.5-7.5zm0 0"/></g><path d="m419.847656 512h-327.695312c-50.894532 0-92.152344-41.257812-92.152344-92.152344v-56.886718c0-17.660157 14.316406-31.972657 31.976562-31.972657h448.046876c17.660156 0 31.976562 14.3125 31.976562 31.972657v56.886718c0 50.894532-41.257812 92.152344-92.152344 92.152344zm0 0" fill="#71f6fc"/><path d="m436.921875 444.335938c-2.210937-3.503907-6.84375-4.546876-10.347656-2.339844-7.453125 4.710937-17.082031 4.722656-24.550781.035156-.019532-.011719-.042969-.023438-.0625-.039062-12.320313-7.78125-28.238282-7.792969-40.574219-.03125-.019531.011718-.039063.023437-.058594.035156-7.472656 4.71875-17.132813 4.71875-24.609375 0-.015625-.011719-.03125-.023438-.050781-.03125-12.335938-7.765625-28.257813-7.753906-40.578125.03125-7.476563 4.71875-17.136719 4.722656-24.613282 0-3.5-2.210938-8.132812-1.167969-10.34375 2.335937-2.210937 3.5-1.167968 8.132813 2.335938 10.34375 12.339844 7.796875 28.289062 7.796875 40.628906 0 7.476563-4.71875 17.136719-4.71875 24.609375 0 .019531.015625.035157.023438.054688.035157 12.316406 7.75 28.210937 7.75 40.523437 0 .019532-.011719.039063-.023438.058594-.035157 7.457031-4.707031 17.085938-4.71875 24.550781-.035156.019531.015625.042969.027344.0625.039063 6.171875 3.898437 13.242188 5.847656 20.3125 5.847656 7.074219 0 14.144531-1.949219 20.316407-5.847656 3.503906-2.210938 4.546874-6.84375 2.335937-10.34375zm0 0" fill="#3be3eb"/><path d="m239.988281 386.03125c-7.453125 4.710938-17.085937 4.722656-24.554687.035156-.019532-.015625-.039063-.027344-.0625-.039062-12.320313-7.78125-28.242188-7.792969-40.578125-.03125-.015625.011718-.035157.023437-.050781.035156-7.476563 4.71875-17.136719 4.71875-24.609376 0-.019531-.011719-.035156-.023438-.054687-.035156-12.335937-7.761719-28.253906-7.75-40.578125.035156-7.476562 4.71875-17.136719 4.71875-24.609375 0-3.5-2.214844-8.132813-1.167969-10.347656 2.335938-2.210938 3.5-1.164063 8.132812 2.335937 10.34375 12.339844 7.796874 28.289063 7.796874 40.632813 0 7.472656-4.71875 17.132812-4.71875 24.609375 0 .015625.011718.03125.023437.050781.03125 12.316406 7.753906 28.210937 7.753906 40.527344 0 .019531-.007813.035156-.019532.054687-.03125 7.457032-4.707032 17.085938-4.71875 24.554688-.035157.019531.011719.039062.027344.0625.039063 6.167968 3.898437 13.238281 5.84375 20.3125 5.84375 7.070312 0 14.144531-1.945313 20.3125-5.84375 3.5-2.210938 4.546875-6.84375 2.335937-10.347656-2.210937-3.5-6.84375-4.542969-10.34375-2.335938zm0 0" fill="#3be3eb"/></svg>