<svg height="512pt" viewBox="0 -1 512.00137 512" width="512pt" xmlns="http://www.w3.org/2000/svg" xmlns:xlink="http://www.w3.org/1999/xlink"><linearGradient id="a"><stop offset="0" stop-color="#d14f4b"/><stop offset="1" stop-color="#ad3324"/></linearGradient><linearGradient id="b" gradientTransform="matrix(.582475 .817594 -.817594 .582475 652.621858 86.429004)" gradientUnits="userSpaceOnUse" x1="-149.1225" x2="-142.8868" xlink:href="#a" y1="368.0756" y2="390.8497"/><linearGradient id="c"><stop offset="0" stop-color="#ffc738"/><stop offset=".4286" stop-color="#ffbb23"/><stop offset="1" stop-color="#ffa700"/></linearGradient><linearGradient id="d" gradientTransform="matrix(.709873 .709873 -.709873 .709873 269.881479 -100.973938)" gradientUnits="userSpaceOnUse" x1="193.1064" x2="193.1064" xlink:href="#c" y1="228.5999" y2="207.2559"/><linearGradient id="e" gradientTransform="matrix(.582475 .817594 -.817594 .582475 652.621858 86.429004)" gradientUnits="userSpaceOnUse" x1="-169.2729" x2="-170.0862" xlink:href="#a" y1="363.5018" y2="375.16"/><linearGradient id="f" gradientTransform="matrix(.709873 .709873 -.709873 .709873 269.881479 -100.973938)" gradientUnits="userSpaceOnUse" x1="178.0078" x2="178.0078" xlink:href="#c" y1="204.5435" y2="175.3595"/><linearGradient id="g" gradientTransform="matrix(.582475 .817594 -.817594 .582475 652.621858 86.429004)" gradientUnits="userSpaceOnUse" x1="-191.7829" x2="-209.4057" xlink:href="#a" y1="325.2967" y2="355.1199"/><linearGradient id="h" gradientTransform="matrix(.709873 .709873 -.709873 .709873 269.881479 -100.973938)" gradientUnits="userSpaceOnUse" x1="167.8595" x2="167.8595" xlink:href="#c" y1="153.664" y2="104.3223"/><linearGradient id="i" gradientTransform="matrix(.582475 .817594 -.817594 .582475 652.621858 86.429004)" gradientUnits="userSpaceOnUse" x1="-188.3229" x2="-203.2345" xlink:href="#a" y1="288.3224" y2="314.6211"/><linearGradient id="j" gradientTransform="matrix(-.709873 -.709873 -.709873 .709873 1605.546018 1234.690601)" gradientUnits="userSpaceOnUse" x1="1643.1595" x2="1779.9324" xlink:href="#c" y1="98.2648" y2="98.2648"/><linearGradient id="k" gradientTransform="matrix(-.817594 -.582475 -.582475 .817594 1418.143076 851.950222)" gradientUnits="userSpaceOnUse" x1="1229.7947" x2="1236.0304" xlink:href="#a" y1="136.5166" y2="159.2907"/><linearGradient id="l" gradientTransform="matrix(.709873 .709873 -.709873 .709873 269.881479 -100.973938)" gradientUnits="userSpaceOnUse" x1="290.2051" x2="290.2051" xlink:href="#c" y1="228.5999" y2="207.2559"/><linearGradient id="m" gradientTransform="matrix(-.817594 -.582475 -.582475 .817594 1418.143076 851.950222)" gradientUnits="userSpaceOnUse" x1="1209.6443" x2="1208.8309" xlink:href="#a" y1="131.9428" y2="143.601"/><linearGradient id="n" gradientTransform="matrix(.709873 .709873 -.709873 .709873 269.881479 -100.973938)" gradientUnits="userSpaceOnUse" x1="318.1413" x2="310.9828" xlink:href="#c" y1="214.4325" y2="194.0583"/><linearGradient id="o" gradientTransform="matrix(-.817594 -.582475 -.582475 .817594 1418.143076 851.950222)" gradientUnits="userSpaceOnUse" x1="1187.1343" x2="1169.5115" xlink:href="#a" y1="93.7377" y2="123.5609"/><linearGradient id="p" gradientTransform="matrix(.709873 .709873 -.709873 .709873 269.881479 -100.973938)" gradientUnits="userSpaceOnUse" x1="315.452" x2="315.452" xlink:href="#c" y1="153.664" y2="104.3223"/><linearGradient id="q" gradientTransform="matrix(-.817594 -.582475 -.582475 .817594 1418.143076 851.950222)" gradientUnits="userSpaceOnUse" x1="1190.5944" x2="1175.6827" xlink:href="#a" y1="56.7634" y2="83.0621"/><linearGradient id="r" gradientTransform="matrix(.709873 .709873 -.709873 .709873 269.881479 -100.973938)" gradientUnits="userSpaceOnUse" x1="244.9349" x2="381.7077" xlink:href="#c" y1="98.2648" y2="98.2648"/><linearGradient id="s" gradientTransform="matrix(.709873 .709873 -.709873 .709873 269.881479 -100.973938)" gradientUnits="userSpaceOnUse" x1="220.1823" x2="269.0167" xlink:href="#c" y1="123.1333" y2="176.7909"/><linearGradient id="t"><stop offset="0" stop-color="#e58200" stop-opacity="0"/><stop offset=".0396" stop-color="#e27f04" stop-opacity=".039216"/><stop offset=".4671" stop-color="#c15d2f" stop-opacity=".466667"/><stop offset=".8016" stop-color="#ad4949" stop-opacity=".8"/><stop offset="1" stop-color="#a64153"/></linearGradient><linearGradient id="u" gradientTransform="matrix(.709873 .709873 -.709873 .709873 269.881479 -100.973938)" gradientUnits="userSpaceOnUse" x1="254.5452" x2="155.5895" xlink:href="#t" y1="158.6165" y2="67.3423"/><linearGradient id="v" gradientTransform="matrix(.709873 .709873 -.709873 .709873 269.881479 -100.973938)" gradientUnits="userSpaceOnUse" x1="306.4318" x2="179.2169" xlink:href="#t" y1="211.5036" y2="84.2887"/><radialGradient id="w" cx="234.2684" cy="103.5444" gradientTransform="matrix(.709873 .709873 -.709873 .709873 269.881479 -100.973938)" gradientUnits="userSpaceOnUse" r="91.065"><stop offset="0" stop-color="#ff4974"/><stop offset=".4791" stop-color="#fe4773"/><stop offset=".6517" stop-color="#fc406d"/><stop offset=".7747" stop-color="#f73565"/><stop offset=".8741" stop-color="#f12458"/><stop offset=".9583" stop-color="#e90e48"/><stop offset="1" stop-color="#e4003d"/></radialGradient><linearGradient id="x" gradientTransform="matrix(.709873 .709873 -.709873 .709873 -1074.942239 -126.903526)" gradientUnits="userSpaceOnUse" x1="1207.1387" x2="1207.1387" y1="-774.9062" y2="-871.3954"><stop offset=".0013" stop-color="#e7eeed" stop-opacity="0"/><stop offset=".4293" stop-color="#eef3f2" stop-opacity=".427451"/><stop offset="1" stop-color="#fff"/></linearGradient><linearGradient id="y" gradientTransform="matrix(.709873 .709873 .709873 -.709873 820.635763 -88.472304)" gradientUnits="userSpaceOnUse" x1="-174.388" x2="-137.8399" xlink:href="#c" y1="-808.7339" y2="-808.7339"/><linearGradient id="z" gradientTransform="matrix(.709873 .709873 -.709873 .709873 269.881479 -100.973938)" gradientUnits="userSpaceOnUse" x1="260.7137" x2="230.6448" xlink:href="#t" y1="371.5214" y2="321.2887"/><linearGradient id="A" gradientTransform="matrix(.709873 .709873 .709873 -.709873 820.635763 -88.472304)" gradientUnits="userSpaceOnUse" x1="-169.0807" x2="-135.5284" xlink:href="#a" y1="-677.551" y2="-677.551"/><linearGradient id="B" gradientTransform="matrix(.709873 .709873 -.709873 .709873 269.881479 -100.973938)" gradientUnits="userSpaceOnUse" x1="263.321" x2="235.4898" y1="299.6299" y2="251.9193"><stop offset="0" stop-color="#ad3324" stop-opacity="0"/><stop offset="1" stop-color="#972e07"/></linearGradient><linearGradient id="C" gradientTransform="matrix(.709873 .709873 .709873 -.709873 820.635763 -88.472304)" gradientUnits="userSpaceOnUse" x1="-155.0706" x2="-155.0706" xlink:href="#c" y1="-641.674" y2="-621.2407"/><linearGradient id="D"><stop offset="0" stop-color="#00c6f6"/><stop offset=".8567" stop-color="#0b9cfd"/><stop offset="1" stop-color="#0d94fe"/></linearGradient><linearGradient id="E" gradientTransform="matrix(-.709873 -.709873 -.709873 .709873 -190.642945 520.371994)" gradientUnits="userSpaceOnUse" x1="-128.3821" x2="-128.3821" xlink:href="#D" y1="-544.9181" y2="-526.4005"/><linearGradient id="F" gradientTransform="matrix(.709873 .709873 -.709873 .709873 269.881479 -100.973938)" gradientUnits="userSpaceOnUse" x1="221.6775" x2="259.5473" xlink:href="#D" y1="591.5709" y2="591.5709"/><linearGradient id="G" gradientTransform="matrix(.709873 .709873 -.709873 .709873 269.881479 -100.973938)" gradientUnits="userSpaceOnUse" x1="256.2474" x2="233.2053" y1="599.2695" y2="560.7756"><stop offset="0" stop-color="#0d94fe" stop-opacity="0"/><stop offset=".5142" stop-color="#0681cd" stop-opacity=".513725"/><stop offset="1" stop-color="#0070a2"/></linearGradient><linearGradient id="H" gradientTransform="matrix(-.709873 -.709873 -.709873 .709873 -190.642945 520.371994)" gradientUnits="userSpaceOnUse" x1="-128.3821" x2="-128.3821" xlink:href="#a" y1="-199.1211" y2="-188.5629"/><path d="m309.203125 192.0625-7.9375 5.652344c-30.371094 21.636718-72.828125 2.167968-76.144531-34.980469-.023438-.273437-.046875-.550781-.070313-.828125-.28125-3.367188 3.375-5.628906 6.242188-3.835938l.070312.042969c36.949219 23.074219 77.839844 33.949219 77.839844 33.949219zm0 0" fill="url(#b)"/><path d="m220.839844 163.121094-.074219-.855469c-.269531-3.199219 1.265625-6.222656 4.003906-7.890625 2.722657-1.660156 6.09375-1.644531 8.800781.050781l.070313.039063c35.941406 22.445312 76.265625 33.335937 76.667969 33.441406 1.609375.429688 2.824218 1.75 3.125 3.386719.296875 1.640625-.378906 3.300781-1.738282 4.269531l-7.933593 5.652344c-15.554688 11.082031-35.199219 12.929687-52.554688 4.941406-5.855469-2.695312-11.027343-6.320312-15.378906-10.667969-8.515625-8.515625-13.867187-19.808593-14.988281-32.367187zm8.527344-1.183594.035156.417969c1.417968 15.867187 10.917968 29.324219 25.402344 35.988281 14.519531 6.683594 30.957031 5.140625 43.964843-4.128906l.761719-.542969c-14.011719-4.445313-42.914062-14.773437-70.164062-31.734375zm-.363282-.230469.003906.007813zm0 0" fill="url(#d)"/><path d="m228.90625 114.125c-.890625 3.589844-1.648438 7.210938-2.265625 10.855469-2.925781 17.191406 5.515625 34.304687 20.945313 42.425781 31.75 16.710938 61.613281 24.65625 61.613281 24.65625-42.238281-23.832031-61.921875-54.886719-71.09375-78.503906-1.707031-4.398438-8.0625-4.011719-9.199219.566406zm0 0" fill="url(#e)"/><path d="m222.402344 124.257812c.636718-3.742187 1.421875-7.5 2.332031-11.167968.976563-3.9375 4.226563-6.648438 8.273437-6.90625 4.0625-.257813 7.632813 2.027344 9.105469 5.816406 8.457031 21.773438 27.320313 52.6875 69.203125 76.320312 1.882813 1.0625 2.683594 3.363282 1.867188 5.367188s-2.996094 3.085938-5.085938 2.53125c-1.238281-.332031-30.699218-8.265625-62.511718-25.007812-4.0625-2.136719-7.683594-4.832032-10.804688-7.949219-10.023438-10.027344-14.855469-24.457031-12.378906-39.003907zm11.695312-9.144531c-.054687-.140625-.144531-.375-.542968-.347656-.382813.023437-.4375.246094-.472657.394531-.863281 3.464844-1.601562 7.011719-2.203125 10.542969-2.621094 15.398437 4.898438 30.628906 18.710938 37.898437 10.855468 5.714844 21.539062 10.402344 30.84375 14.085938-25.992188-21.246094-39.425782-44.78125-46.335938-62.574219zm0 0" fill="url(#f)"/><path d="m309.199219 192.0625c-42.011719-58.96875-41.257813-108.414062-31.785157-141.3125 1.605469-5.566406-5.253906-9.679688-9.371093-5.601562-10.492188 10.398437-19.15625 22.125-25.917969 34.707031-6.625 12.332031-7.136719 27.113281-1.4375 39.898437 10.109375 22.667969 29.875 50.507813 68.511719 72.308594zm0 0" fill="url(#g)"/><path d="m236.761719 121.503906c-6.214844-13.941406-5.628907-30.269531 1.574219-43.679687 7.082031-13.179688 16.058593-25.203125 26.683593-35.726563 3.25-3.222656 8.082031-3.816406 12.027344-1.476562 3.964844 2.351562 5.773437 6.902344 4.5 11.320312-15.917969 55.265625 8.160156 105.347656 31.15625 137.628906 1.167969 1.640626 1.042969 3.871094-.304687 5.371094-1.347657 1.496094-3.554688 1.855469-5.308594.867188-16.0625-9.0625-28.875-19.171875-39.089844-29.386719-15.90625-15.902344-25.503906-32.066406-31.238281-44.917969zm36.523437-71.941406c.238282-.832031-.207031-1.300781-.625-1.542969-.582031-.347656-1.117187-.285156-1.589844.183594-10.019531 9.925781-18.480468 21.261719-25.15625 33.6875-5.953124 11.082031-6.441406 24.582031-1.296874 36.113281 10.519531 23.589844 27.347656 43.65625 50.152343 59.84375-19.859375-33.273437-35.785156-78.644531-21.484375-128.285156zm0 0" fill="url(#h)"/><path d="m348.191406 13.34375c.726563-.519531 1.460938-1.03125 2.195313-1.535156 3.621093-2.476563 1.410156-8.167969-2.917969-7.445313-15.242188 2.546875-30.253906 7.53125-44.4375 15.050781-.203125.105469-.417969.222657-.632812.339844-12.292969 6.746094-21.367188 18.191406-25.179688 31.683594-9.289062 32.894531-9.738281 82.066406 31.980469 140.625-34.636719-60.023438-18.609375-137.683594 38.992187-178.71875zm0 0" fill="url(#i)"/><path d="m305.699219 194.558594c-23.964844-33.640625-49.082031-85.980469-32.617188-144.289063 4.105469-14.539062 14.035157-27.035156 27.253907-34.289062.230468-.128907.457031-.25.679687-.367188 14.347656-7.601562 29.738281-12.816406 45.742187-15.492187 3.957032-.65625 7.625 1.394531 9.121094 5.117187 1.492188 3.703125.230469 7.867188-3.066406 10.121094-.714844.488281-1.421875.980469-2.128906 1.484375-26.859375 19.136719-45.460938 47.417969-52.375 79.640625-6.867188 32.011719-1.679688 65.191406 14.617187 93.429687 1.144531 1.988282.53125 4.523438-1.398437 5.765626-1.726563 1.109374-3.957032.832031-5.363282-.570313-.167968-.167969-.324218-.351563-.464843-.550781zm39.996093-184.714844c.503907-.363281 1.011719-.71875 1.527344-1.078125-14.75 2.570313-28.9375 7.425781-42.171875 14.441406l-.585937.316407c-11.203125 6.148437-19.625 16.746093-23.109375 29.082031-9.664063 34.238281-4.023438 66.464843 7.128906 93.660156-2.691406-16.957031-2.261719-34.429687 1.417969-51.585937 7.367187-34.324219 27.179687-64.453126 55.792968-84.835938zm0 0" fill="url(#j)"/><path d="m319.9375 202.800781-5.652344 7.933594c-21.636718 30.375-2.164062 72.828125 34.980469 76.144531.277344.023438.550781.046875.828125.070313 3.367188.28125 5.628906-3.375 3.835938-6.242188l-.042969-.070312c-23.074219-36.949219-33.949219-77.835938-33.949219-77.835938zm0 0" fill="url(#k)"/><path d="m316.515625 276.171875c-4.351563-4.347656-7.976563-9.523437-10.671875-15.378906-7.984375-17.355469-6.140625-37 4.941406-52.550781l5.652344-7.9375c.96875-1.355469 2.628906-2.03125 4.269531-1.734376 1.640625.296876 2.957031 1.515626 3.386719 3.125.109375.402344 11 40.726563 33.441406 76.667969l.042969.066407c1.691406 2.707031 1.710937 6.082031.046875 8.804687-1.667969 2.734375-4.691406 4.269531-7.890625 4l-.855469-.074219c-12.558594-1.121094-23.851562-6.472656-32.363281-14.988281zm1.8125-63.703125-.542969.761719c-9.269531 13.011719-10.8125 29.445312-4.128906 43.964843 6.664062 14.484376 20.121094 23.984376 35.988281 25.402344l.417969.035156c-16.960938-27.25-27.289062-56.152343-31.734375-70.164062zm31.957031 70.523438.007813.003906zm0 0" fill="url(#l)"/><path d="m397.875 283.09375c-3.589844.890625-7.210938 1.648438-10.855469 2.265625-17.191406 2.925781-34.304687-5.515625-42.425781-20.945313-16.710938-31.75-24.65625-61.613281-24.65625-61.613281 23.835938 42.238281 54.886719 61.921875 78.507812 71.09375 4.398438 1.707031 4.011719 8.0625-.570312 9.199219zm0 0" fill="url(#m)"/><path d="m348.742188 277.21875c-3.121094-3.121094-5.8125-6.742188-7.953126-10.804688-16.742187-31.8125-24.675781-61.269531-25.007812-62.507812-.554688-2.089844.53125-4.269531 2.535156-5.085938 2.003906-.816406 4.300782-.015624 5.363282 1.867188 23.632812 41.878906 54.546874 60.746094 76.320312 69.199219 3.789062 1.472656 6.074219 5.046875 5.816406 9.109375-.257812 4.046875-2.96875 7.292968-6.90625 8.269531-3.667968.914063-7.425781 1.699219-11.167968 2.335937-14.546876 2.472657-28.976563-2.355468-39-12.382812zm-14.425782-45.652344c3.679688 9.304688 8.371094 19.988282 14.082032 30.84375 7.269531 13.8125 22.5 21.332032 37.902343 18.710938 3.527344-.601563 7.074219-1.339844 10.539063-2.199219.148437-.039063.371094-.09375.394531-.476563.027344-.398437-.207031-.488281-.347656-.542968-17.792969-6.910156-41.324219-20.34375-62.570313-46.335938zm0 0" fill="url(#n)"/><path d="m319.9375 202.800781c58.96875 42.011719 108.414062 41.257813 141.3125 31.785157 5.570312-1.605469 9.679688 5.253906 5.601562 9.371093-10.398437 10.492188-22.121093 19.15625-34.707031 25.917969-12.332031 6.625-27.113281 7.136719-39.898437 1.4375-22.667969-10.109375-50.507813-29.875-72.308594-68.511719zm0 0" fill="url(#o)"/><path d="m345.578125 244c-10.214844-10.214844-20.320313-23.027344-29.386719-39.085938-.988281-1.753906-.628906-3.960937.871094-5.308593 1.496094-1.347657 3.726562-1.476563 5.367188-.308594 32.285156 23 82.363281 47.074219 137.628906 31.15625 4.421875-1.273437 8.972656.535156 11.320312 4.5 2.339844 3.945313 1.746094 8.78125-1.472656 12.03125-10.527344 10.621094-22.546875 19.597656-35.726562 26.679687-13.410157 7.203126-29.742188 7.789063-43.683594 1.574219-12.851563-5.730469-29.011719-15.332031-44.917969-31.238281zm-11.421875-26.769531c16.1875 22.804687 36.25 39.632812 59.84375 50.15625 11.527344 5.140625 25.027344 4.65625 36.109375-1.296875 12.425781-6.675782 23.761719-15.140625 33.6875-25.160156.46875-.472657.53125-1.007813.1875-1.589844-.246094-.417969-.714844-.863282-1.542969-.621094-49.644531 14.296875-95.015625-1.625-128.285156-21.488281zm0 0" fill="url(#p)"/><path d="m498.65625 163.808594c.519531-.726563 1.03125-1.460938 1.535156-2.195313 2.476563-3.621093 8.167969-1.410156 7.445313 2.917969-2.546875 15.242188-7.53125 30.253906-15.050781 44.4375-.105469.203125-.222657.417969-.339844.632812-6.746094 12.292969-18.191406 21.367188-31.683594 25.179688-32.894531 9.289062-82.066406 9.738281-140.625-31.980469 60.027344 34.636719 137.683594 18.609375 178.71875-38.992187zm0 0" fill="url(#q)"/><path d="m316.894531 205.835938c-1.40625-1.402344-1.683593-3.632813-.574219-5.359376 1.242188-1.929687 3.777344-2.546874 5.765626-1.402343 28.238281 16.296875 61.417968 21.488281 93.433593 14.617187 32.21875-6.914062 60.5-25.515625 79.636719-52.375.503906-.707031 1-1.414062 1.484375-2.125 2.257813-3.300781 6.417969-4.5625 10.121094-3.070312 3.722656 1.496094 5.777343 5.164062 5.117187 9.121094-2.675781 16.007812-7.886718 31.394531-15.488281 45.742187-.121094.226563-.242187.449219-.371094.683594-7.25 13.214843-19.746093 23.148437-34.285156 27.25-58.308594 16.464843-110.648437-8.648438-144.289063-32.617188-.203124-.140625-.386718-.296875-.550781-.464843zm185.265625-39.53125c-20.386718 28.613281-50.515625 48.425781-84.839844 55.792968-17.15625 3.683594-34.625 4.113282-51.585937 1.417969 27.195313 11.152344 59.421875 16.792969 93.660156 7.128906 12.335938-3.484375 22.9375-11.90625 29.082031-23.109375l.316407-.585937c7.015625-13.234375 11.875-27.421875 14.441406-42.171875-.359375.515625-.714844 1.023437-1.074219 1.527344zm0 0" fill="url(#r)"/><path d="m411.210938 174.730469c0 40.835937-33.105469 73.941406-73.941407 73.941406-40.835937 0-73.941406-33.105469-73.941406-73.941406 0-40.835938 33.105469-73.9375 73.941406-73.9375 40.835938 0 73.941407 33.101562 73.941407 73.9375zm0 0" fill="url(#s)"/><path d="m402.695312 174.730469c0 36.132812-29.292968 65.425781-65.425781 65.425781-36.132812 0-65.425781-29.292969-65.425781-65.425781 0-36.132813 29.292969-65.421875 65.425781-65.421875 36.132813 0 65.425781 29.289062 65.425781 65.421875zm0 0" fill="url(#u)"/><path d="m389.550781 227.015625c1.328125-1.328125 2.53125-2.730469 3.734375-4.128906v-46.980469c.308594-14.742188-5.121094-29.578125-16.367187-40.824219-21.898438-21.898437-57.402344-21.898437-79.296875 0-11.25 11.246094-16.675782 26.082031-16.371094 40.820313v46.984375c1.207031 1.398437 2.40625 2.800781 3.734375 4.128906 28.875 28.875 75.691406 28.875 104.566406 0zm0 0" fill="url(#v)"/><path d="m393.34375 174.730469c0 30.96875-25.105469 56.074219-56.074219 56.074219s-56.074219-25.105469-56.074219-56.074219 25.105469-56.070313 56.074219-56.070313 56.074219 25.101563 56.074219 56.070313zm0 0" fill="url(#w)"/><path d="m375.632812 194.140625c-13.816406 13.8125-37.949218 12.082031-53.902343-3.871094s-17.683594-40.085937-3.867188-53.902343c13.816407-13.8125 37.949219-12.082032 53.902344 3.871093 15.949219 15.953125 17.683594 40.085938 3.867187 53.902344zm0 0" fill="url(#x)"/><path d="m265.425781 245.089844c-7.164062-7.160156-18.777343-7.160156-25.941406 0l-233.492187 233.492187c-7.164063 7.164063-7.164063 18.78125 0 25.945313 7.164062 7.164062 18.78125 7.164062 25.945312 0l233.488281-233.492188c7.167969-7.164062 7.167969-18.78125 0-25.945312zm0 0" fill="url(#y)"/><path d="m183 301.574219v51.890625l35.582031-35.582032-25.945312-25.945312zm0 0" fill="url(#z)"/><path d="m272.90625 258.734375-20.9375-20.9375c-2.695312-2.695313-7.066406-2.695313-9.761719 0l-57.261719 57.261719c-2.695312 2.695312-2.695312 7.066406 0 9.761718l20.9375 20.9375c2.695313 2.695313 7.066407 2.695313 9.761719 0l57.261719-57.261718c2.695312-2.695313 2.695312-7.066406 0-9.761719zm0 0" fill="url(#A)"/><path d="m272.90625 258.734375-20.9375-20.9375c-2.695312-2.695313-7.066406-2.695313-9.761719 0l-5.324219 5.324219v61.402344l36.023438-36.023438c2.695312-2.699219 2.695312-7.070312 0-9.765625zm0 0" fill="url(#B)"/><path d="m308.328125 253.980469-50.308594-50.308594c-3.714843-3.71875-9.742187-3.71875-13.460937 0-14.359375 14.359375-14.359375 37.640625 0 52.003906l11.765625 11.765625c14.363281 14.359375 37.644531 14.359375 52.003906 0 3.71875-3.71875 3.71875-9.742187 0-13.460937zm0 0" fill="url(#C)"/><path d="m243.128906 210.347656 58.523438 58.527344c4.714844 4.714844 12.359375 4.714844 17.074218 0 4.714844-4.714844 4.714844-12.359375 0-17.074219l-58.523437-58.527343c-4.714844-4.714844-12.359375-4.714844-17.074219 0-4.71875 4.714843-4.71875 12.359374 0 17.074218zm0 0" fill="url(#E)"/><path d="m20.316406 463.320312-14.535156 14.535157c-7.289062 7.289062-7.828125 19.164062-.804688 26.707031 7.375 7.917969 19.777344 8.085938 27.367188.5l14.855469-14.855469c1.253906-1.257812 1.253906-3.289062 0-4.546875l-22.339844-22.339844c-1.253906-1.253906-3.289063-1.253906-4.542969 0zm0 0" fill="url(#F)"/><path d="m19.8125 510.585938c4.558594-.21875 9.050781-2.046876 12.53125-5.527344l14.855469-14.855469c1.253906-1.253906 1.253906-3.289063 0-4.542969l-22.339844-22.339844c-1.253906-1.253906-3.289063-1.253906-4.542969 0l-.503906.5zm0 0" fill="url(#G)"/><path d="m21.71875 467.054688 23.226562 23.226562c2.6875 2.691406 7.046876 2.691406 9.734376 0 2.691406-2.6875 2.691406-7.046875 0-9.734375l-23.226563-23.226563c-2.6875-2.6875-7.046875-2.6875-9.734375 0s-2.6875 7.046876 0 9.734376zm0 0" fill="url(#H)"/></svg>